<?xml version="1.0" encoding="UTF-8" standalone="no"?>
<!-- Created with Inkscape (http://www.inkscape.org/) -->

<svg
   xmlns:dc="http://purl.org/dc/elements/1.1/"
   xmlns:cc="http://creativecommons.org/ns#"
   xmlns:rdf="http://www.w3.org/1999/02/22-rdf-syntax-ns#"
   xmlns:svg="http://www.w3.org/2000/svg"
   xmlns="http://www.w3.org/2000/svg"
   xmlns:sodipodi="http://sodipodi.sourceforge.net/DTD/sodipodi-0.dtd"
   xmlns:inkscape="http://www.inkscape.org/namespaces/inkscape"
   width="283.46457"
   height="283.46457"
   id="svg2"
   version="1.1"
   inkscape:version="0.48.4 r9939"
   sodipodi:docname="0.svg">
  <defs
     id="defs4" />
  <sodipodi:namedview
     id="base"
     pagecolor="#ffffff"
     bordercolor="#666666"
     borderopacity="1.0"
     inkscape:pageopacity="0.0"
     inkscape:pageshadow="2"
     inkscape:zoom="2.8"
     inkscape:cx="155.18233"
     inkscape:cy="143.2101"
     inkscape:document-units="mm"
     inkscape:current-layer="layer1"
     showgrid="false"
     units="mm"
     inkscape:window-width="1857"
     inkscape:window-height="1056"
     inkscape:window-x="63"
     inkscape:window-y="24"
     inkscape:window-maximized="1" />
  <metadata
     id="metadata7">
    <rdf:RDF>
      <cc:Work
         rdf:about="">
        <dc:format>image/svg+xml</dc:format>
        <dc:type
           rdf:resource="http://purl.org/dc/dcmitype/StillImage" />
        <dc:title></dc:title>
      </cc:Work>
    </rdf:RDF>
  </metadata>
  <g
     inkscape:label="Layer 1"
     inkscape:groupmode="layer"
     id="layer1"
     transform="translate(0,-768.89763)">
    <g
       transform="translate(0,768.89763)"
       style="font-size:200px;font-style:normal;font-variant:normal;font-weight:normal;font-stretch:normal;text-align:start;line-height:125%;letter-spacing:0px;word-spacing:0px;writing-mode:lr-tb;text-anchor:start;fill:#000000;fill-opacity:1;stroke:none;font-family:Sans;-inkscape-font-specification:Sans"
       id="flowRoot3026">
      <path
         d="m 113.71875,128.34748 c -1e-5,-24.47907 3.64582,-42.708217 10.9375,-54.687499 7.81247,-12.499861 19.27079,-18.749854 34.375,-18.75 15.62493,1.46e-4 27.08325,6.250139 34.375,18.75 7.8124,11.979282 11.71865,30.208429 11.71875,54.687499 -1e-4,24.47922 -3.90635,42.96878 -11.71875,55.46875 -7.29175,11.97917 -18.75007,17.96875 -34.375,17.96875 -15.10421,0 -26.56253,-5.98958 -34.375,-17.96875 -7.29168,-12.49997 -10.93751,-30.98953 -10.9375,-55.46875 m 73.4375,0 c -8e-5,-21.8749 -2.60425,-36.979056 -7.8125,-45.312499 -4.68757,-8.333207 -11.4584,-12.49987 -20.3125,-12.5 -8.33338,1.3e-4 -15.10421,4.166793 -20.3125,12.5 -4.68753,7.81261 -7.03128,22.916759 -7.03125,45.312499 -3e-5,22.91672 2.34372,38.5417 7.03125,46.875 5.20829,7.81252 11.97912,11.71876 20.3125,11.71875 8.8541,1e-5 15.62493,-4.16665 20.3125,-12.5 5.20825,-8.3333 7.81242,-23.69787 7.8125,-46.09375"
         style=""
         id="path3039" />
    </g>
    <text
       xml:space="preserve"
       style="font-size:40px;font-style:normal;font-weight:normal;line-height:125%;letter-spacing:0px;word-spacing:0px;fill:#000000;fill-opacity:1;stroke:none;font-family:Sans"
       x="8.2142859"
       y="109.536"
       id="text3034"
       sodipodi:linespacing="125%"
       transform="translate(0,768.89763)"><tspan
         sodipodi:role="line"
         id="tspan3036"
         x="8.2142859"
         y="109.536"> </tspan></text>
  </g>
</svg>
