<?xml version="1.0" encoding="UTF-8" standalone="no"?>
<!-- Created with Inkscape (http://www.inkscape.org/) -->

<svg
   xmlns:dc="http://purl.org/dc/elements/1.1/"
   xmlns:cc="http://creativecommons.org/ns#"
   xmlns:rdf="http://www.w3.org/1999/02/22-rdf-syntax-ns#"
   xmlns:svg="http://www.w3.org/2000/svg"
   xmlns="http://www.w3.org/2000/svg"
   xmlns:sodipodi="http://sodipodi.sourceforge.net/DTD/sodipodi-0.dtd"
   xmlns:inkscape="http://www.inkscape.org/namespaces/inkscape"
   width="283.46457"
   height="283.46457"
   id="svg3117"
   version="1.1"
   inkscape:version="0.48.4 r9939"
   sodipodi:docname="新建文档 7">
  <defs
     id="defs3119" />
  <sodipodi:namedview
     id="base"
     pagecolor="#ffffff"
     bordercolor="#666666"
     borderopacity="1.0"
     inkscape:pageopacity="0.0"
     inkscape:pageshadow="2"
     inkscape:zoom="1.979899"
     inkscape:cx="273.52382"
     inkscape:cy="166.14819"
     inkscape:document-units="mm"
     inkscape:current-layer="layer1"
     showgrid="false"
     units="mm"
     inkscape:window-width="1857"
     inkscape:window-height="1056"
     inkscape:window-x="63"
     inkscape:window-y="24"
     inkscape:window-maximized="1" />
  <metadata
     id="metadata3122">
    <rdf:RDF>
      <cc:Work
         rdf:about="">
        <dc:format>image/svg+xml</dc:format>
        <dc:type
           rdf:resource="http://purl.org/dc/dcmitype/StillImage" />
        <dc:title></dc:title>
      </cc:Work>
    </rdf:RDF>
  </metadata>
  <g
     inkscape:label="Layer 1"
     inkscape:groupmode="layer"
     id="layer1"
     transform="translate(0,-768.89763)">
    <g
       transform="translate(0,768.89763)"
       style="font-size:200px;font-style:normal;font-variant:normal;font-weight:normal;font-stretch:normal;text-align:start;line-height:125%;letter-spacing:0px;word-spacing:0px;writing-mode:lr-tb;text-anchor:start;fill:#000000;fill-opacity:1;stroke:none;font-family:Sans;-inkscape-font-specification:Sans"
       id="flowRoot3125">
      <path
         d="m 166.96875,123.34748 c 23.43741,3.12507 35.15615,14.5834 35.15625,34.375 -1e-4,13.02086 -4.42718,23.43752 -13.28125,31.25 -8.85424,7.29167 -21.87506,10.9375 -39.0625,10.9375 -16.14586,0 -28.90627,-2.34375 -38.28125,-7.03125 l 0,-17.1875 c 11.97915,6.25002 24.47913,9.37501 37.5,9.375 11.45828,1e-5 20.05202,-2.34373 25.78125,-7.03125 5.72909,-4.68747 8.59367,-11.71872 8.59375,-21.09375 -8e-5,-8.33328 -3.12508,-14.58328 -9.375,-18.75 -5.72923,-4.1666 -14.84381,-6.24993 -27.34375,-6.25 l -13.28125,0 0,-14.84375 13.28125,0 c 10.41661,8e-5 18.48952,-2.34367 24.21875,-7.03125 5.72909,-5.20824 8.59367,-11.979065 8.59375,-20.312499 -8e-5,-6.249885 -2.34382,-11.197797 -7.03125,-14.84375 -4.16673,-4.166539 -9.89589,-6.24987 -17.1875,-6.25 -11.97921,1.3e-4 -23.17711,3.906376 -33.59375,11.71875 l -9.375,-12.5 c 11.97915,-9.37486 26.30205,-14.062355 42.96875,-14.0625 13.5416,1.45e-4 23.95826,3.385558 31.25,10.15625 7.29158,6.250128 10.93741,14.583453 10.9375,25 -9e-5,18.750089 -10.15633,30.208409 -30.46875,34.374999"
         style=""
         id="path3134" />
    </g>
  </g>
</svg>
