<?xml version="1.0" encoding="UTF-8" standalone="no"?>
<!-- Created with Inkscape (http://www.inkscape.org/) -->

<svg
   xmlns:dc="http://purl.org/dc/elements/1.1/"
   xmlns:cc="http://creativecommons.org/ns#"
   xmlns:rdf="http://www.w3.org/1999/02/22-rdf-syntax-ns#"
   xmlns:svg="http://www.w3.org/2000/svg"
   xmlns="http://www.w3.org/2000/svg"
   xmlns:sodipodi="http://sodipodi.sourceforge.net/DTD/sodipodi-0.dtd"
   xmlns:inkscape="http://www.inkscape.org/namespaces/inkscape"
   width="283.46457"
   height="283.46457"
   id="svg3193"
   version="1.1"
   inkscape:version="0.48.4 r9939"
   sodipodi:docname="新建文档 11">
  <defs
     id="defs3195" />
  <sodipodi:namedview
     id="base"
     pagecolor="#ffffff"
     bordercolor="#666666"
     borderopacity="1.0"
     inkscape:pageopacity="0.0"
     inkscape:pageshadow="2"
     inkscape:zoom="2.8"
     inkscape:cx="188.00348"
     inkscape:cy="139.70637"
     inkscape:document-units="mm"
     inkscape:current-layer="layer1"
     showgrid="false"
     units="mm"
     inkscape:window-width="1857"
     inkscape:window-height="1056"
     inkscape:window-x="63"
     inkscape:window-y="24"
     inkscape:window-maximized="1" />
  <metadata
     id="metadata3198">
    <rdf:RDF>
      <cc:Work
         rdf:about="">
        <dc:format>image/svg+xml</dc:format>
        <dc:type
           rdf:resource="http://purl.org/dc/dcmitype/StillImage" />
        <dc:title></dc:title>
      </cc:Work>
    </rdf:RDF>
  </metadata>
  <g
     inkscape:label="Layer 1"
     inkscape:groupmode="layer"
     id="layer1"
     transform="translate(0,-768.89763)">
    <g
       transform="translate(0,768.89763)"
       style="font-size:200px;font-style:normal;font-variant:normal;font-weight:normal;font-stretch:normal;text-align:start;line-height:125%;letter-spacing:0px;word-spacing:0px;writing-mode:lr-tb;text-anchor:start;fill:#000000;fill-opacity:1;stroke:none;font-family:Sans;-inkscape-font-specification:Sans"
       id="flowRoot3201">
      <path
         d="m 116.84375,195.09748 0,-17.1875 c 9.37498,6.25002 21.35413,9.37501 35.9375,9.375 10.41661,1e-5 18.2291,-2.60415 23.4375,-7.8125 5.72909,-5.20831 8.59367,-12.76038 8.59375,-22.65625 -8e-5,-9.89578 -2.86466,-17.18744 -8.59375,-21.875 -5.2084,-4.68743 -13.54173,-7.03118 -25,-7.03125 -5.72921,7e-5 -13.02087,0.78132 -21.875,2.34375 l -9.375,-5.46875 5.46875,-67.187499 67.1875,0 0,16.40625 -51.5625,0 -3.90625,40.624999 c 6.77079,-1.04158 13.54162,-1.56241 20.3125,-1.5625 14.06243,9e-5 25.26034,3.90633 33.59375,11.71875 8.33324,7.29174 12.4999,17.18756 12.5,29.6875 -1e-4,15.1042 -4.42718,26.82294 -13.28125,35.15625 -8.85424,8.33334 -21.61465,12.5 -38.28125,12.5 -14.58337,0 -26.3021,-2.34375 -35.15625,-7.03125"
         style=""
         id="path3210" />
    </g>
  </g>
</svg>
