<?xml version="1.0" encoding="UTF-8" standalone="no"?>
<!-- Created with Inkscape (http://www.inkscape.org/) -->

<svg
   xmlns:dc="http://purl.org/dc/elements/1.1/"
   xmlns:cc="http://creativecommons.org/ns#"
   xmlns:rdf="http://www.w3.org/1999/02/22-rdf-syntax-ns#"
   xmlns:svg="http://www.w3.org/2000/svg"
   xmlns="http://www.w3.org/2000/svg"
   xmlns:sodipodi="http://sodipodi.sourceforge.net/DTD/sodipodi-0.dtd"
   xmlns:inkscape="http://www.inkscape.org/namespaces/inkscape"
   width="283.46457"
   height="283.46457"
   id="svg3307"
   version="1.1"
   inkscape:version="0.48.4 r9939"
   sodipodi:docname="新建文档 17">
  <defs
     id="defs3309" />
  <sodipodi:namedview
     id="base"
     pagecolor="#ffffff"
     bordercolor="#666666"
     borderopacity="1.0"
     inkscape:pageopacity="0.0"
     inkscape:pageshadow="2"
     inkscape:zoom="1.979899"
     inkscape:cx="242.86403"
     inkscape:cy="140.04205"
     inkscape:document-units="mm"
     inkscape:current-layer="layer1"
     showgrid="false"
     units="mm"
     inkscape:window-width="1857"
     inkscape:window-height="1056"
     inkscape:window-x="63"
     inkscape:window-y="24"
     inkscape:window-maximized="1" />
  <metadata
     id="metadata3312">
    <rdf:RDF>
      <cc:Work
         rdf:about="">
        <dc:format>image/svg+xml</dc:format>
        <dc:type
           rdf:resource="http://purl.org/dc/dcmitype/StillImage" />
        <dc:title></dc:title>
      </cc:Work>
    </rdf:RDF>
  </metadata>
  <g
     inkscape:label="Layer 1"
     inkscape:groupmode="layer"
     id="layer1"
     transform="translate(0,-768.89763)">
    <g
       transform="translate(0,768.89763)"
       style="font-size:200px;font-style:normal;font-variant:normal;font-weight:normal;font-stretch:normal;text-align:start;line-height:125%;letter-spacing:0px;word-spacing:0px;writing-mode:lr-tb;text-anchor:start;fill:#000000;fill-opacity:1;stroke:none;font-family:Sans;-inkscape-font-specification:Sans"
       id="flowRoot3315">
      <path
         d="m 174.71875,123.59748 c 20.31241,10.93757 30.46865,23.69797 30.46875,38.28125 -1e-4,11.45836 -4.16676,20.83335 -12.5,28.125 -7.81258,7.29167 -18.48965,10.9375 -32.03125,10.9375 -14.58337,0 -25.78128,-3.38541 -33.59375,-10.15625 -7.81251,-6.77082 -11.71876,-16.14581 -11.71875,-28.125 -1e-5,-16.66661 9.37498,-29.42702 28.125,-38.28125 -15.62502,-9.37491 -23.43751,-21.35407 -23.4375,-35.937499 -1e-5,-9.895712 3.64581,-17.968621 10.9375,-24.21875 7.29163,-6.770691 17.18746,-10.156104 29.6875,-10.15625 11.9791,1.46e-4 21.61451,3.385559 28.90625,10.15625 7.29157,6.250129 10.9374,14.323038 10.9375,24.21875 -1e-4,15.104259 -8.59384,26.822999 -25.78125,35.156249 m -14.0625,-7.03125 c 15.1041,-6.77074 22.65617,-15.88532 22.65625,-27.343749 -8e-5,-6.770716 -2.08341,-11.718628 -6.25,-14.84375 -3.6459,-3.645704 -9.37506,-5.468619 -17.1875,-5.46875 -7.29171,1.31e-4 -12.76046,1.823046 -16.40625,5.46875 -3.64587,3.125122 -5.46878,8.073034 -5.46875,14.84375 -3e-5,11.458429 7.55204,20.573009 22.65625,27.343749 m -3.125,14.84375 c -16.14587,7.81256 -24.21878,18.48963 -24.21875,32.03125 -3e-5,7.81253 2.0833,13.80211 6.25,17.96875 4.68746,3.64585 11.45829,5.46876 20.3125,5.46875 9.37494,1e-5 16.40618,-2.08332 21.09375,-6.25 4.68742,-4.16664 7.03117,-10.15622 7.03125,-17.96875 -8e-5,-5.72912 -1.823,-10.67703 -5.46875,-14.84375 -3.64591,-4.68744 -10.93757,-9.63535 -21.875,-14.84375 l -3.125,-1.5625"
         style=""
         id="path3324" />
    </g>
  </g>
</svg>
