<?xml version="1.0" encoding="UTF-8" standalone="no"?>
<!-- Created with Inkscape (http://www.inkscape.org/) -->

<svg
   xmlns:dc="http://purl.org/dc/elements/1.1/"
   xmlns:cc="http://creativecommons.org/ns#"
   xmlns:rdf="http://www.w3.org/1999/02/22-rdf-syntax-ns#"
   xmlns:svg="http://www.w3.org/2000/svg"
   xmlns="http://www.w3.org/2000/svg"
   xmlns:sodipodi="http://sodipodi.sourceforge.net/DTD/sodipodi-0.dtd"
   xmlns:inkscape="http://www.inkscape.org/namespaces/inkscape"
   width="283.46457"
   height="283.46457"
   id="svg3345"
   version="1.1"
   inkscape:version="0.48.4 r9939"
   sodipodi:docname="新建文档 19">
  <defs
     id="defs3347" />
  <sodipodi:namedview
     id="base"
     pagecolor="#ffffff"
     bordercolor="#666666"
     borderopacity="1.0"
     inkscape:pageopacity="0.0"
     inkscape:pageshadow="2"
     inkscape:zoom="1.979899"
     inkscape:cx="235.33249"
     inkscape:cy="132.51051"
     inkscape:document-units="mm"
     inkscape:current-layer="layer1"
     showgrid="false"
     units="mm"
     inkscape:window-width="1857"
     inkscape:window-height="1056"
     inkscape:window-x="63"
     inkscape:window-y="24"
     inkscape:window-maximized="1" />
  <metadata
     id="metadata3350">
    <rdf:RDF>
      <cc:Work
         rdf:about="">
        <dc:format>image/svg+xml</dc:format>
        <dc:type
           rdf:resource="http://purl.org/dc/dcmitype/StillImage" />
        <dc:title></dc:title>
      </cc:Work>
    </rdf:RDF>
  </metadata>
  <g
     inkscape:label="Layer 1"
     inkscape:groupmode="layer"
     id="layer1"
     transform="translate(0,-768.89763)">
    <g
       transform="translate(0,768.89763)"
       style="font-size:200px;font-style:normal;font-variant:normal;font-weight:normal;font-stretch:normal;text-align:start;line-height:125%;letter-spacing:0px;word-spacing:0px;writing-mode:lr-tb;text-anchor:start;fill:#000000;fill-opacity:1;stroke:none;font-family:Sans;-inkscape-font-specification:Sans"
       id="flowRoot3353">
      <path
         d="m 126.28125,200.37873 0,-14.84375 c 4.68747,1.56251 10.15622,2.34376 16.40625,2.34375 28.64577,1e-5 43.4895,-19.2708 44.53125,-57.8125 l -0.78125,0 c -6.25007,11.45839 -16.40631,17.18755 -30.46875,17.1875 -12.50004,5e-5 -22.39586,-3.90619 -29.6875,-11.71875 -7.29168,-7.81243 -10.93751,-18.4895 -10.9375,-32.03125 -1e-5,-15.104053 3.90624,-26.822792 11.71875,-35.156249 8.3333,-8.333193 19.01038,-12.499855 32.03125,-12.5 13.5416,1.45e-4 24.7395,5.468889 33.59375,16.40625 8.85407,10.416785 13.28115,25.781353 13.28125,46.093749 -1e-4,28.12506 -5.20843,49.21878 -15.625,63.28125 -10.41674,13.54167 -26.04173,20.3125 -46.875,20.3125 -7.2917,0 -13.02086,-0.52083 -17.1875,-1.5625 m 32.03125,-67.1875 c 8.33327,7e-5 15.36451,-2.6041 21.09375,-7.8125 5.72909,-5.20825 8.59367,-11.45825 8.59375,-18.75 -8e-5,-10.416561 -2.86466,-19.010303 -8.59375,-25.781249 -5.72924,-6.770707 -12.50006,-10.15612 -20.3125,-10.15625 -8.85421,1.3e-4 -15.62504,2.86471 -20.3125,8.59375 -4.1667,5.20845 -6.25003,13.281358 -6.25,24.218749 -3e-5,9.89592 2.0833,17.448 6.25,22.65625 4.68746,4.68757 11.19787,7.03132 19.53125,7.03125"
         style=""
         id="path3362" />
    </g>
  </g>
</svg>
