<?xml version="1.0" encoding="UTF-8" standalone="no"?>
<!-- Created with Inkscape (http://www.inkscape.org/) -->

<svg
   xmlns:dc="http://purl.org/dc/elements/1.1/"
   xmlns:cc="http://creativecommons.org/ns#"
   xmlns:rdf="http://www.w3.org/1999/02/22-rdf-syntax-ns#"
   xmlns:svg="http://www.w3.org/2000/svg"
   xmlns="http://www.w3.org/2000/svg"
   xmlns:sodipodi="http://sodipodi.sourceforge.net/DTD/sodipodi-0.dtd"
   xmlns:inkscape="http://www.inkscape.org/namespaces/inkscape"
   width="354.33069"
   height="354.33069"
   id="svg3383"
   version="1.1"
   inkscape:version="0.48.4 r9939"
   sodipodi:docname="新建文档 21">
  <defs
     id="defs3385" />
  <sodipodi:namedview
     id="base"
     pagecolor="#ffffff"
     bordercolor="#666666"
     borderopacity="1.0"
     inkscape:pageopacity="0.0"
     inkscape:pageshadow="2"
     inkscape:zoom="1.4"
     inkscape:cx="259.73129"
     inkscape:cy="175.85936"
     inkscape:document-units="mm"
     inkscape:current-layer="layer1"
     showgrid="false"
     units="mm"
     inkscape:window-width="1857"
     inkscape:window-height="1056"
     inkscape:window-x="63"
     inkscape:window-y="24"
     inkscape:window-maximized="1" />
  <metadata
     id="metadata3388">
    <rdf:RDF>
      <cc:Work
         rdf:about="">
        <dc:format>image/svg+xml</dc:format>
        <dc:type
           rdf:resource="http://purl.org/dc/dcmitype/StillImage" />
        <dc:title></dc:title>
      </cc:Work>
    </rdf:RDF>
  </metadata>
  <g
     inkscape:label="Layer 1"
     inkscape:groupmode="layer"
     id="layer1"
     transform="translate(0,-698.03151)">
    <g
       transform="translate(0,698.03151)"
       style="font-size:120px;font-style:normal;font-variant:normal;font-weight:normal;font-stretch:normal;text-align:start;line-height:125%;letter-spacing:0px;word-spacing:0px;writing-mode:lr-tb;text-anchor:start;fill:#000000;fill-opacity:1;stroke:none;font-family:Sans;-inkscape-font-specification:Sans"
       id="flowRoot3391">
      <path
         d="m 61.84375,20.427239 9.375,2.8125 c -3.437539,9.062585 -7.500035,17.968826 -12.1875,26.71875 l 0,78.281251 -9.375,0 0,-63.281251 c -3.750017,5.000047 -7.656263,9.687543 -11.71875,14.0625 l -4.6875,-9.375 C 46.687482,54.021052 56.218722,37.614819 61.84375,20.427239 m 7.5,24.375 45.9375,0 0,-24.84375 9.84375,0 0,24.84375 16.875,0 0,8.90625 -16.875,0 0,62.343751 c -1e-4,4.375 -0.9376,7.49999 -2.8125,9.375 -1.87509,1.87499 -5.46884,2.81249 -10.78125,2.8125 -4.68758,-1e-5 -9.06257,-0.46876 -13.125,-1.40625 l -1.875,-9.375 c 4.37493,1.25 8.90617,1.875 13.59375,1.875 1.87492,0 3.12492,-0.46875 3.75,-1.40625 0.93741,-0.625 1.40616,-2.03125 1.40625,-4.21875 l 0,-60.000001 -45.9375,0 0,-8.90625 m 14.0625,16.875 c 6.874938,9.375046 12.499933,19.531286 16.875,30.46875 L 91.375,97.302239 C 87.312441,86.67727 81.843697,76.52103 74.96875,66.833489 l 8.4375,-5.15625"
         style=""
         id="path3408" />
      <path
         d="m 165.4375,21.364739 c 6.87498,3.750092 13.12497,8.281338 18.75,13.59375 l -6.09375,7.96875 c -6.25002,-5.93742 -12.65627,-10.937415 -19.21875,-15 l 6.5625,-6.5625 m -4.6875,29.0625 c 6.24998,3.437563 12.03123,7.343809 17.34375,11.71875 l -6.5625,7.96875 c -5.31252,-5.312448 -11.09376,-9.687443 -17.34375,-13.125 l 6.5625,-6.5625 m 10.78125,29.53125 7.96875,5.625 c -3.75003,14.687521 -9.21877,28.906251 -16.40625,42.656251 l -9.375,-6.5625 c 7.49999,-13.12499 13.43748,-27.031228 17.8125,-41.718751 m 14.0625,-37.03125 15.9375,0 0,-21.5625 9.375,0 0,21.5625 20.15625,0 0,-21.5625 9.375,0 0,21.5625 18.28125,0 0,8.90625 -18.28125,0 0,30.46875 20.15625,0 0,8.90625 -77.34375,0 0,-8.90625 18.28125,0 0,-30.46875 -15.9375,0 0,-8.90625 m 25.3125,39.375 20.15625,0 0,-30.46875 -20.15625,0 0,30.46875 m 25.78125,12.65625 c 7.8124,7.500011 15.46865,16.406251 22.96875,26.718751 l -8.90625,7.03125 c -6.2501,-9.6875 -13.59384,-19.21874 -22.03125,-28.59375 l 7.96875,-5.156251 m -32.8125,0 8.90625,4.21875 c -7.50006,12.812501 -15.62505,22.656241 -24.375,29.531251 l -7.96875,-7.03125 c 9.68746,-7.8125 17.49995,-16.71874 23.4375,-26.718751"
         style=""
         id="path3410" />
    </g>
    <flowRoot
       xml:space="preserve"
       id="flowRoot3399"
       style="fill:black;stroke:none;stroke-opacity:1;stroke-width:1px;stroke-linejoin:miter;stroke-linecap:butt;fill-opacity:1;font-family:Sans;font-style:normal;font-weight:normal;font-size:40px;line-height:125%;letter-spacing:0px;word-spacing:0px"><flowRegion
         id="flowRegion3401"><rect
           id="rect3403"
           width="4.2857141"
           height="120.71429"
           x="348.57144"
           y="237.90211" /></flowRegion><flowPara
         id="flowPara3405"></flowPara></flowRoot>  </g>
</svg>
