<?xml version="1.0" encoding="UTF-8" standalone="no"?>
<!-- Created with Inkscape (http://www.inkscape.org/) -->

<svg
   xmlns:dc="http://purl.org/dc/elements/1.1/"
   xmlns:cc="http://creativecommons.org/ns#"
   xmlns:rdf="http://www.w3.org/1999/02/22-rdf-syntax-ns#"
   xmlns:svg="http://www.w3.org/2000/svg"
   xmlns="http://www.w3.org/2000/svg"
   xmlns:sodipodi="http://sodipodi.sourceforge.net/DTD/sodipodi-0.dtd"
   xmlns:inkscape="http://www.inkscape.org/namespaces/inkscape"
   width="354.33069"
   height="354.33069"
   id="svg3431"
   version="1.1"
   inkscape:version="0.48.4 r9939"
   sodipodi:docname="新建文档 23">
  <defs
     id="defs3433" />
  <sodipodi:namedview
     id="base"
     pagecolor="#ffffff"
     bordercolor="#666666"
     borderopacity="1.0"
     inkscape:pageopacity="0.0"
     inkscape:pageshadow="2"
     inkscape:zoom="1.4"
     inkscape:cx="258.54782"
     inkscape:cy="165.50402"
     inkscape:document-units="mm"
     inkscape:current-layer="layer1"
     showgrid="false"
     units="mm"
     inkscape:window-width="1857"
     inkscape:window-height="1056"
     inkscape:window-x="63"
     inkscape:window-y="24"
     inkscape:window-maximized="1" />
  <metadata
     id="metadata3436">
    <rdf:RDF>
      <cc:Work
         rdf:about="">
        <dc:format>image/svg+xml</dc:format>
        <dc:type
           rdf:resource="http://purl.org/dc/dcmitype/StillImage" />
        <dc:title></dc:title>
      </cc:Work>
    </rdf:RDF>
  </metadata>
  <g
     inkscape:label="Layer 1"
     inkscape:groupmode="layer"
     id="layer1"
     transform="translate(0,-698.03149)">
    <g
       transform="translate(0,698.03149)"
       style="font-size:120px;font-style:normal;font-variant:normal;font-weight:normal;font-stretch:normal;text-align:start;line-height:125%;letter-spacing:0px;word-spacing:0px;writing-mode:lr-tb;text-anchor:start;fill:#000000;fill-opacity:1;stroke:none;font-family:Sans;-inkscape-font-specification:Sans"
       id="flowRoot3439">
      <path
         d="m 9.78125,30.989739 41.25,0 0,-8.90625 9.375,0 0,8.90625 41.25,0 0,8.4375 -34.21875,0 c 10.937417,10.00007 24.687404,17.187563 41.25,21.5625 L 104,69.895989 C 86.499909,63.646045 71.968674,54.583554 60.40625,42.708489 l 0,24.84375 -9.375,0 0,-24.84375 C 40.093706,54.271054 26.03122,63.489795 8.84375,70.364739 L 2.75,62.395989 c 16.874976,-5.624937 30.312463,-13.28118 40.3125,-22.96875 l -33.28125,0 0,-8.4375 m -7.96875,67.96875 50.625,0 0,-7.96875 21.5625,-9.375 -53.90625,0 0,-8.90625 70.3125,0 0,9.84375 c -8.437586,4.375032 -17.812577,8.593778 -28.125,12.65625 l 0,3.75 47.34375,0 0,8.906251 -47.34375,0 0,13.125 c -6.7e-5,3.12499 -1.093815,5.46874 -3.28125,7.03125 -2.187561,1.56249 -5.468808,2.34374 -9.84375,2.34375 -4.062549,-1e-5 -7.968795,-0.62501 -11.71875,-1.875 l -1.40625,-9.375 c 3.124957,1.25 6.718703,1.875 10.78125,1.875 3.749945,0 5.624943,-0.625 5.625,-1.875 l 0,-11.25 -50.625,0 0,-8.906251"
         style=""
         id="path3448" />
      <path
         d="m 146.1875,22.552239 7.96875,4.21875 c -5.93753,11.562581 -14.68752,21.562571 -26.25,30 l -5.625,-7.5 c 10.93748,-8.437421 18.90622,-17.343663 23.90625,-26.71875 m 4.21875,26.71875 7.96875,4.21875 c -3.12504,6.25006 -7.34379,12.656303 -12.65625,19.21875 l 0,58.125001 -8.90625,0 0,-48.750001 c -3.75002,3.750034 -7.03126,6.718781 -9.84375,8.90625 l -5.625,-7.5 c 12.49998,-9.999954 22.18747,-21.406193 29.0625,-34.21875 m 17.8125,-20.15625 56.71875,0 0,8.90625 -56.71875,0 0,-8.90625 m -4.6875,30.46875 66.09375,0 0,8.90625 -17.34375,0 0,49.687501 c -1e-4,4.375 -0.9376,7.49999 -2.8125,9.375 -1.56259,1.87499 -5.15634,2.81249 -10.78125,2.8125 -5.00008,-1e-5 -9.53132,-0.46876 -13.59375,-1.40625 l -1.875,-9.375 c 4.99993,0.9375 10.15617,1.40625 15.46875,1.40625 2.49991,0 3.74991,-1.5625 3.75,-4.6875 l 0,-47.812501 -38.90625,0 0,-8.90625"
         style=""
         id="path3450" />
    </g>
  </g>
</svg>
