<?xml version="1.0" encoding="UTF-8" standalone="no"?>
<!-- Created with Inkscape (http://www.inkscape.org/) -->

<svg
   xmlns:dc="http://purl.org/dc/elements/1.1/"
   xmlns:cc="http://creativecommons.org/ns#"
   xmlns:rdf="http://www.w3.org/1999/02/22-rdf-syntax-ns#"
   xmlns:svg="http://www.w3.org/2000/svg"
   xmlns="http://www.w3.org/2000/svg"
   xmlns:sodipodi="http://sodipodi.sourceforge.net/DTD/sodipodi-0.dtd"
   xmlns:inkscape="http://www.inkscape.org/namespaces/inkscape"
   width="354.33069"
   height="354.33069"
   id="svg3513"
   version="1.1"
   inkscape:version="0.48.4 r9939"
   sodipodi:docname="新建文档 27">
  <defs
     id="defs3515" />
  <sodipodi:namedview
     id="base"
     pagecolor="#ffffff"
     bordercolor="#666666"
     borderopacity="1.0"
     inkscape:pageopacity="0.0"
     inkscape:pageshadow="2"
     inkscape:zoom="1.4"
     inkscape:cx="286.35931"
     inkscape:cy="160.77015"
     inkscape:document-units="mm"
     inkscape:current-layer="layer1"
     showgrid="false"
     units="mm"
     inkscape:window-width="1857"
     inkscape:window-height="1056"
     inkscape:window-x="63"
     inkscape:window-y="24"
     inkscape:window-maximized="1" />
  <metadata
     id="metadata3518">
    <rdf:RDF>
      <cc:Work
         rdf:about="">
        <dc:format>image/svg+xml</dc:format>
        <dc:type
           rdf:resource="http://purl.org/dc/dcmitype/StillImage" />
        <dc:title></dc:title>
      </cc:Work>
    </rdf:RDF>
  </metadata>
  <g
     inkscape:label="Layer 1"
     inkscape:groupmode="layer"
     id="layer1"
     transform="translate(0,-698.03149)">
    <g
       transform="translate(0,698.03149)"
       style="font-size:120px;font-style:normal;font-variant:normal;font-weight:normal;font-stretch:normal;text-align:start;line-height:125%;letter-spacing:0px;word-spacing:0px;writing-mode:lr-tb;text-anchor:start;fill:#000000;fill-opacity:1;stroke:none;font-family:Sans;-inkscape-font-specification:Sans"
       id="flowRoot3521">
      <path
         d="m 14.78125,30.989739 41.25,0 0,-8.90625 9.375,0 0,8.90625 41.25,0 0,8.4375 -34.21875,0 c 10.937417,10.00007 24.687404,17.187563 41.25,21.5625 L 109,69.895989 C 91.499909,63.646045 76.968674,54.583554 65.40625,42.708489 l 0,24.84375 -9.375,0 0,-24.84375 C 45.093706,54.271054 31.03122,63.489795 13.84375,70.364739 L 7.75,62.395989 c 16.874976,-5.624937 30.312463,-13.28118 40.3125,-22.96875 l -33.28125,0 0,-8.4375 m -7.96875,67.96875 50.625,0 0,-7.96875 21.5625,-9.375 -53.90625,0 0,-8.90625 70.3125,0 0,9.84375 c -8.437586,4.375032 -17.812577,8.593778 -28.125,12.65625 l 0,3.75 47.34375,0 0,8.906251 -47.34375,0 0,13.125 c -6.7e-5,3.12499 -1.093815,5.46874 -3.28125,7.03125 -2.187561,1.56249 -5.468808,2.34374 -9.84375,2.34375 -4.062549,-1e-5 -7.968795,-0.62501 -11.71875,-1.875 l -1.40625,-9.375 c 3.124957,1.25 6.718703,1.875 10.78125,1.875 3.749945,0 5.624943,-0.625 5.625,-1.875 l 0,-11.25 -50.625,0 0,-8.906251"
         style=""
         id="path3530" />
      <path
         d="m 175.5625,28.177239 52.03125,0 0,20.15625 6.5625,0 0,8.90625 -6.5625,0 0,20.625 -35.15625,0 c -1.56257,4.062537 -3.43757,7.812534 -5.625,11.25 l 41.71875,0 0,41.250001 -8.90625,0 0,-4.6875 -30.46875,0 0,4.6875 -8.90625,0 0,-31.875001 c -2.18756,2.812521 -4.37506,5.312511 -6.5625,7.500001 l -6.09375,-7.031251 c 5.62495,-5.624974 10.62494,-12.656217 15,-21.09375 l -8.4375,0 0,-8.4375 11.71875,0 c 1.56243,-3.749946 2.65618,-7.812442 3.28125,-12.1875 l -20.625,0 0,-8.90625 22.03125,0 c -7e-5,-3.437426 0.15618,-7.343672 0.46875,-11.71875 l -15.46875,0 0,-8.4375 m 23.90625,8.4375 c -0.31258,4.375078 -0.46883,8.281324 -0.46875,11.71875 l 19.6875,0 0,-11.71875 -19.21875,0 m -1.40625,20.625 c -0.31258,3.125059 -1.09383,7.187555 -2.34375,12.1875 l 22.96875,0 0,-12.1875 -20.625,0 m -8.90625,60.000001 30.46875,0 0,-19.687501 -30.46875,0 0,19.687501 m -62.34375,-88.593751 36.09375,0 0,8.90625 -13.125,0 0,27.1875 12.1875,0 0,8.90625 -12.1875,0 0,27.656251 c 4.99997,-2.187481 9.68746,-4.374979 14.0625,-6.562501 l 1.40625,8.437501 c -10.93753,5.93751 -23.12502,10.9375 -36.5625,15 l -1.875,-9.375 c 4.68749,-1.24999 9.37498,-2.65624 14.0625,-4.21875 l 0,-30.937501 -13.125,0 0,-8.90625 13.125,0 0,-27.1875 -14.0625,0 0,-8.90625"
         style=""
         id="path3532" />
    </g>
  </g>
</svg>
