<?xml version="1.0" encoding="UTF-8" standalone="no"?>
<!-- Created with Inkscape (http://www.inkscape.org/) -->

<svg
   xmlns:dc="http://purl.org/dc/elements/1.1/"
   xmlns:cc="http://creativecommons.org/ns#"
   xmlns:rdf="http://www.w3.org/1999/02/22-rdf-syntax-ns#"
   xmlns:svg="http://www.w3.org/2000/svg"
   xmlns="http://www.w3.org/2000/svg"
   xmlns:sodipodi="http://sodipodi.sourceforge.net/DTD/sodipodi-0.dtd"
   xmlns:inkscape="http://www.inkscape.org/namespaces/inkscape"
   width="354.33069"
   height="354.33069"
   id="svg3471"
   version="1.1"
   inkscape:version="0.48.4 r9939"
   sodipodi:docname="新建文档 25">
  <defs
     id="defs3473" />
  <sodipodi:namedview
     id="base"
     pagecolor="#ffffff"
     bordercolor="#666666"
     borderopacity="1.0"
     inkscape:pageopacity="0.0"
     inkscape:pageshadow="2"
     inkscape:zoom="1.979899"
     inkscape:cx="202.69582"
     inkscape:cy="155.31434"
     inkscape:document-units="mm"
     inkscape:current-layer="layer1"
     showgrid="false"
     units="mm"
     inkscape:window-width="1857"
     inkscape:window-height="1056"
     inkscape:window-x="63"
     inkscape:window-y="24"
     inkscape:window-maximized="1" />
  <metadata
     id="metadata3476">
    <rdf:RDF>
      <cc:Work
         rdf:about="">
        <dc:format>image/svg+xml</dc:format>
        <dc:type
           rdf:resource="http://purl.org/dc/dcmitype/StillImage" />
        <dc:title></dc:title>
      </cc:Work>
    </rdf:RDF>
  </metadata>
  <g
     inkscape:label="Layer 1"
     inkscape:groupmode="layer"
     id="layer1"
     transform="translate(0,-698.03149)">
    <g
       transform="translate(0,698.03149)"
       style="font-size:100px;font-style:normal;font-variant:normal;font-weight:normal;font-stretch:normal;text-align:start;line-height:125%;letter-spacing:0px;word-spacing:0px;writing-mode:lr-tb;text-anchor:start;fill:#000000;fill-opacity:1;stroke:none;font-family:Sans;-inkscape-font-specification:Sans"
       id="flowRoot3479">
      <path
         d="m 25.3125,45.829991 0,-14.84375 -19.921875,0 0,-7.421875 27.34375,0 0,29.296875 -17.96875,0 -1.5625,15.625 19.140625,0 C 32.343716,88.27792 31.562466,99.996658 30,103.64249 c -1.302114,3.90624 -4.296903,5.85937 -8.984375,5.85938 -2.864604,-1e-5 -6.119809,-0.39064 -9.765625,-1.17188 l -1.5625,-7.42187 c 4.166651,0.78124 7.682272,1.17187 10.546875,1.17187 1.30206,0 2.213517,-1.04167 2.734375,-3.124999 0.781224,-2.343746 1.302057,-10.156238 1.5625,-23.4375 l -19.921875,0 3.125,-29.6875 17.578125,0 m 19.921875,-25 7.8125,0 0,35.15625 37.890625,0 0,7.421875 -20.703125,0 c 4.16659,16.927104 11.979082,28.77605 23.4375,35.546875 l -3.90625,7.421879 C 76.22388,97.783119 67.239514,83.460216 62.8125,63.408116 l -9.765625,0 0,37.500004 c 4.166607,-2.604168 8.33327,-5.338541 12.5,-8.203129 l 3.125,6.25 C 63.20306,102.86124 57.083274,106.63728 50.3125,110.28312 l -5.078125,-5.07813 0,-41.796874 -8.984375,0 0,-7.421875 8.984375,0 0,-35.15625 m 31.640625,2.34375 6.640625,3.90625 C 77.005129,38.017554 70.494719,46.611295 63.984375,52.861241 L 58.125,47.783116 C 65.677016,39.970677 71.927009,31.76756 76.875,23.173741"
         style=""
         id="path3488" />
      <path
         d="m 116.32813,20.048741 7.03125,2.34375 c -1.0417,3.385491 -2.21357,6.640697 -3.51563,9.765625 l 17.96875,0 0,7.03125 -21.48437,0 c -2.34377,4.687557 -5.33856,8.984427 -8.98438,12.890625 L 101.875,47.001866 c 6.51041,-8.333271 11.32811,-17.317637 14.45313,-26.953125 m 2.34375,34.765625 -6.64063,0 0,-6.640625 23.82812,0 0,6.640625 -10.15624,0 0,14.84375 12.49999,0 0,7.03125 -12.49999,0 0,21.484375 c 3.90621,-1.562496 7.42183,-3.255203 10.54687,-5.078125 l 1.17187,7.031254 c -4.1667,2.86458 -9.24482,5.33853 -15.23437,7.42187 l -3.51562,-3.51562 0,-27.343754 -13.28125,0 0,-7.03125 13.28125,0 0,-14.84375 m 27.34374,-24.609375 -4.29687,0 0,-7.03125 44.14062,0 0,5.46875 c -3.90633,8.85423 -8.72403,15.625056 -14.45312,20.3125 5.46867,3.125048 12.2395,5.468796 20.3125,7.03125 l -2.73438,7.421875 c -9.37508,-1.562461 -17.44799,-4.687458 -24.21875,-9.375 -6.51047,4.427125 -14.06255,7.552122 -22.65625,9.375 l -3.90625,-7.421875 c 7.81246,-1.82287 14.58328,-4.296826 20.3125,-7.421875 -4.94797,-4.687443 -9.11463,-10.807229 -12.5,-18.359375 m 18.75,14.453125 c 5.20827,-4.166607 9.24472,-8.98431 12.10938,-14.453125 l -23.04688,0 c 3.12495,5.989648 6.77078,10.807351 10.9375,14.453125 m -20.70312,25 16.79687,0 0,-9.375 7.42188,0 0,9.375 18.35937,0 0,7.03125 -18.35937,0 0,9.765625 22.26562,0 0,7.421875 -22.26562,0 0,16.015624 -7.42188,0 0,-16.015624 -21.48437,0 0,-7.421875 21.48437,0 0,-9.765625 -16.79687,0 0,-7.03125"
         style=""
         id="path3490" />
      <path
         d="m 203.04687,55.204991 14.0625,0 0,-35.15625 6.64063,0 0,35.15625 14.84375,0 0,6.640625 -8.59375,0 0,30.46875 c 3.12496,-1.822907 5.85934,-3.645821 8.20312,-5.46875 l 1.95313,6.25 c -4.94795,4.16667 -9.50524,7.552084 -13.67188,10.156254 l -3.51562,-3.906254 0,-37.5 -4.6875,0 c -0.26044,14.843774 -1.17189,25.390638 -2.73438,31.640625 -1.56251,5.989584 -4.29688,11.588539 -8.20312,16.796879 l -5.46875,-5.46875 c 3.38541,-3.90625 5.72916,-8.59375 7.03125,-14.062504 1.56249,-5.729151 2.34374,-15.364558 2.34375,-28.90625 l -8.20313,0 0,-6.640625 m 6.64063,-27.734375 c 2.34374,7.291732 3.90623,14.843808 4.6875,22.65625 l -6.64063,1.953125 c -0.78125,-8.333277 -2.34375,-16.01556 -4.6875,-23.046875 l 6.64063,-1.5625 m 21.875,0.78125 6.64062,1.953125 c -1.82295,8.854228 -4.03649,16.276096 -6.64062,22.265625 l -5.85938,-3.125 c 2.60414,-7.291608 4.55726,-14.322851 5.85938,-21.09375 m 8.98437,-6.25 23.04688,0 0,33.984375 -7.42188,0 0,-8.203125 c -4.42713,2.604217 -9.37504,4.947965 -14.84375,7.03125 l -2.73437,-6.25 c 6.77079,-2.604112 12.63016,-5.078068 17.57812,-7.421875 l 0,-12.109375 -15.625,0 0,-7.03125 m 26.95313,0 23.4375,0 0,33.984375 -7.42188,0 0,-8.203125 c -4.42716,2.604217 -9.37507,4.947965 -14.84375,7.03125 l -2.73437,-6.25 c 6.77076,-2.343696 12.63013,-4.817652 17.57812,-7.421875 l 0,-12.109375 -16.01562,0 0,-7.03125 m -19.53125,10.15625 c 1.30203,2.343816 2.21349,4.94798 2.73437,7.8125 l -6.25,1.953125 c -0.52087,-2.864522 -1.43233,-5.468686 -2.73437,-7.8125 l 6.25,-1.953125 m 27.34375,0 c 1.302,2.343816 2.34367,4.94798 3.125,7.8125 l -6.25,1.953125 c -0.78132,-2.864522 -1.82299,-5.468686 -3.125,-7.8125 l 6.25,-1.953125 M 248.35937,54.423741 255,56.376866 c -0.78131,2.343792 -1.69276,4.557331 -2.73438,6.640625 l 12.10938,0 c -0.26048,-1.562461 -0.65111,-2.994751 -1.17188,-4.296875 l 7.03125,-2.34375 c 0.78118,2.083375 1.43222,4.296915 1.95313,6.640625 l 19.53125,0 0,6.640625 -18.75,0 0,6.25 16.79687,0 0,5.859375 -16.79687,0 0,6.25 16.79687,0 0,6.25 -16.79687,0 0,6.249999 19.53125,0 0,6.64063 -41.40625,0 0,2.73437 -7.42188,0 0,-33.203124 -3.90625,4.6875 -4.29687,-7.03125 c 5.98954,-6.249968 10.28641,-12.890586 12.89062,-19.921875 m 17.1875,21.484375 0,-6.25 -14.45312,0 0,6.25 14.45312,0 m 0,12.109375 0,-6.25 -14.45312,0 0,6.25 14.45312,0 m -14.45312,12.499999 14.45312,0 0,-6.249999 -14.45312,0 0,6.249999"
         style=""
         id="path3492" />
    </g>
  </g>
</svg>
